<svg xmlns="http://www.w3.org/2000/svg" viewBox="0 0 507.26 203.39"><defs><style>.cls-1{stroke:#000;stroke-miterlimit:10;stroke-width:7.88px;}</style></defs><g id="Layer_2" data-name="Layer 2"><g id="Lag_1" data-name="Lag 1"><path d="M224.55,2.75V200H248.1v1.87H158.94V200h23.4V6.77L118.59,201.89H109L36.76,8.21v117.3C36.76,179.92,50,200,71.21,200h1.87v1.87H0V200H1.87c19.67,0,32.87-19.52,32.87-74.51V2.75H8.61V.88H79.83l54.41,145.88L182.05.88h66V2.75Z"/><path d="M507.26,61.62c0,30.29-20.1,59.29-75.95,59.29-11.63,0-21.25-1.29-28.57-4V200h26.13v1.87H337.12V200h23.41V2.75H337.12V.88h83.71C476.1.88,507.26,23.42,507.26,61.62Zm-45.8-.44c0-34.31-8.76-58.43-48.24-58.43H402.74V115.17A57.3,57.3,0,0,0,421.69,118C455.43,118,461.46,92.2,461.46,61.18Z"/><line class="cls-1" x1="293.07" x2="293.07" y2="203.39"/></g></g></svg>